# xmcd
#
# Track frame offsets: 
#        150
#        17545
#        33177
#        44102
#        56622
#        70702
#        85665
#        99257
#        113945
#        125137
#        140720
#        152820
#        166080
#        177192
#        187097
#        199022
#        210830
#        224887
#        237585
#        249050
#        258100
#        270670
#        281805
#        288965
#        298230
#        330407
#
# Disc length: 4795 seconds
#
# Revision: 0
# Processed by: cddbd v1.5.1PL0 Copyright (c) Steve Scherf et al.
# Submitted via: ExactAudioCopy v0.95a3
#
DISCID=8612b91a
DTITLE=Various Artist - DISCO90's
DYEAR=1900
DGENRE=Disco
TTITLE0=RICH IN PRADAISE/F.P.IPROJECT
TTITLE1=I don't know anybody else/BLACKBOX
TTITLE2=touch me/49ers
TTITLE3=Why don't you/RAGE
TTITLE4=Dreamin' in buristead road/X-sample
TTITLE5=memories memories/JAMIE DEE
TTITLE6=change the way/MARIA SHORT
TTITLE7=everybody's free/ROZALLA
TTITLE8=your love/FARGETTA
TTITLE9=JAMES BROWN IS DEAD/L.A.STYLE
TTITLE10=anasthasia/T99
TTITLE11=night in motion/CUBIC22
TTITLE12=injected with a poison/PRAGA KHAN feat.JADE 4U
TTITLE13=can't wait tonight/ZERO PH
TTITLE14=bombas/CHIMO BAYO
TTITLE15=have a nice day/2 THE CORE
TTITLE16=move on baby/CAPPELLA
TTITLE17=twilight zone/2UNLIMITED
TTITLE18=gener-action/REXANTHONY
TTITLE19=explosion/DIGITAL VOLCANO
TTITLE20=gonna be alright/2nd FUNC-TION
TTITLE21=can't undo this/MAXIMIZOR
TTITLE22=are u wake up/STARR GAZER
TTITLE23=to be free/JOHN ROBINSON feat.PRAGA KHAN and JADE4U
TTITLE24=ez do dance/trf
TTITLE25=CCCD
EXTD=
EXTT0=
EXTT1=
EXTT2=
EXTT3=
EXTT4=
EXTT5=
EXTT6=
EXTT7=
EXTT8=
EXTT9=
EXTT10=
EXTT11=
EXTT12=
EXTT13=
EXTT14=
EXTT15=
EXTT16=
EXTT17=
EXTT18=
EXTT19=
EXTT20=
EXTT21=
EXTT22=
EXTT23=
EXTT24=
EXTT25=
PLAYORDER=
